<?xml version="1.0" encoding="utf-8"?>
<!-- Generator: Adobe Illustrator 16.0.0, SVG Export Plug-In . SVG Version: 6.00 Build 0)  -->
<!DOCTYPE svg PUBLIC "-//W3C//DTD SVG 1.1//EN" "http://www.w3.org/Graphics/SVG/1.1/DTD/svg11.dtd">
<svg version="1.1" xmlns="http://www.w3.org/2000/svg" xmlns:xlink="http://www.w3.org/1999/xlink" x="0px" y="0px"
	 width="799.775px" height="230.445px" viewBox="0 0 799.775 230.445" enable-background="new 0 0 799.775 230.445"
	 xml:space="preserve">
<g id="图层_1">
	<path fill="none" d="M746.5,145.913L746.5,145.913L746.5,145.913z"/>
	<polygon class="poly" fill="#E37B21" stroke="#FFFFFF" stroke-miterlimit="10" points="454,168.411 454,117.411 454,103.822 416,103.822 
		386.5,103.822 386.5,168.411 	"/>
	<polygon class="poly" fill="#E37B21" stroke="#FFFFFF" stroke-miterlimit="10" points="625.337,103.822 650,103.822 650,74.911 650,41.165 
		564,41.165 564,103.822 	"/>
	<polygon class="poly" fill="#E37B21" stroke="#FFFFFF" stroke-miterlimit="10" points="454,74.911 454,136.116 454,168.411 454,188.411 
		487.275,188.411 487.275,156.911 487.275,74.911 	"/>
	<polygon class="poly" fill="#E37B21" stroke="#FFFFFF" stroke-miterlimit="10" points="581.67,103.822 564,103.822 535.5,103.822 
		487.275,103.822 487.275,156.911 535.5,156.911 535.5,183.911 581.67,183.911 581.67,131.661 	"/>
	<polygon class="poly" fill="#E37B21" stroke="#FFFFFF" stroke-miterlimit="10" points="147.333,130.411 122,130.411 101.387,130.411 
		82.9,130.411 82.9,186.192 214,186.192 214,130.411 164,130.411 	"/>
	<polygon class="poly" fill="#E37B21" stroke="#FFFFFF" stroke-miterlimit="10" points="686.327,183.911 788,119.706 686.327,41.883 
		686.327,106.411 686.327,145.913 	"/>
	<polygon class="poly" fill="#E37B21" stroke="#FFFFFF" stroke-miterlimit="10" points="262.843,150.411 263.5,150.411 263.5,91.656 214,91.656 
		214,103.822 214,130.411 214,186.192 243,186.192 263.5,186.192 263.5,150.411 	"/>
	<polygon class="poly" fill="#E37B21" stroke="#FFFFFF" stroke-miterlimit="10" points="164,91.656 164,130.411 214,130.411 214,91.656 
		214,52.901 183,52.901 164,52.901 	"/>
	<rect class="poly" x="263.499" y="91.656" fill="#E37B21" stroke="#FFFFFF" stroke-miterlimit="10" width="48.187" height="94.536"/>
	<polygon class="poly" fill="#E37B21" stroke="#FFFFFF" stroke-miterlimit="10" points="164,52.901 82.9,52.901 82.9,78.459 82.9,130.411 
		122,130.411 122,130.411 164,130.411 	"/>
	<polygon class="poly" fill="#E37B21" stroke="#FFFFFF" stroke-miterlimit="10" points="513.334,41.165 564,41.165 564,103.822 487.275,103.822 
		487.275,74.911 513.334,74.911 	"/>
	<polygon class="poly" fill="#E37B21" stroke="#FFFFFF" stroke-miterlimit="10" points="311.685,186.192 263.5,186.192 243,186.192 243,220.745 
		311.685,220.745 311.685,199.411 	"/>
	<polygon class="poly" fill="#E37B21" stroke="#FFFFFF" stroke-miterlimit="10" points="28.448,113.679 82.9,113.679 82.9,52.901 82.9,41.166 
		48.667,58.745 	"/>
	<polygon class="poly" fill="#E37B21" stroke="#FFFFFF" stroke-miterlimit="10" points="396,168.411 311.685,168.411 311.685,199.411 
		311.685,220.745 454,220.745 454,168.411 	"/>
	<polygon class="poly" fill="#E37B21" stroke="#FFFFFF" stroke-miterlimit="10" points="82.9,113.679 28.448,113.679 13.333,154.745 
		82.9,186.192 	"/>
	<polygon class="poly" fill="#E37B21" stroke="#FFFFFF" stroke-miterlimit="10" points="487.275,156.911 487.275,188.411 454,188.411 
		454,220.745 535.5,220.745 535.5,156.911 	"/>
	<rect class="poly" x="581.67" y="131.661" fill="#E37B21" stroke="#FFFFFF" stroke-miterlimit="10" width="104.657" height="52.25"/>
	<polygon class="poly" fill="#E37B21" stroke="#FFFFFF" stroke-miterlimit="10" points="564,41.165 604.67,41.165 650,41.165 650,14.077 
		513.334,10.745 513.334,41.165 	"/>
	<polygon class="poly" fill="#E37B21" stroke="#FFFFFF" stroke-miterlimit="10" points="122,52.901 147.333,52.901 147.333,30.489 147.333,8.079 
		82.9,41.166 82.9,52.901 	"/>
	<g>
		<polygon class="poly" fill="#E37B21" stroke="#FFFFFF" stroke-miterlimit="10" points="650,14.077 650,103.822 581.67,103.822 581.67,131.661 
			655.5,131.661 686.327,131.661 686.327,106.411 686.327,41.883 		"/>
	</g>
	<polygon class="poly" fill="#E37B21" stroke="#FFFFFF" stroke-miterlimit="10" points="147.333,30.489 147.333,52.901 311.686,52.901 
		147.333,8.079 147.333,30.489 	"/>
	<rect class="poly" x="214" y="52.901" fill="#E37B21" stroke="#FFFFFF" stroke-miterlimit="10" width="97.687" height="38.755"/>
	<polygon class="poly" fill="#E37B21" stroke="#FFFFFF" stroke-miterlimit="10" points="487.275,74.911 513.334,74.911 513.334,41.165 
		513.334,10.745 454,54.079 454,74.911 	"/>
	<polygon class="poly" fill="#E37B21" stroke="#FFFFFF" stroke-miterlimit="10" points="243,186.192 243,220.745 159.333,220.745 82.9,186.192 	
		"/>
	<polygon class="poly" fill="#E37B21" stroke="#FFFFFF" stroke-miterlimit="10" points="311.685,52.901 353.999,52.901 354.001,103.822 
		386.5,103.822 386.5,168.411 311.685,168.411 	"/>
	<polygon class="poly" fill="#E37B21" stroke="#FFFFFF" stroke-miterlimit="10" points="354.001,52.901 454,54.079 454,103.822 354.001,103.822 	
		"/>
	<polygon class="poly" fill="#E37B21" stroke="#FFFFFF" stroke-miterlimit="10" points="535.5,183.911 535.5,220.745 632.72,220.745 
		686.327,183.911 	"/>
</g>
<g id="图层_2">
	<text transform="matrix(1 0 0 1 115.0002 41.1648)" font-family="'MicrosoftYaHei-Bold'" font-size="12">1</text>
	<text transform="matrix(1 0 0 1 180.3337 39.5227)" font-family="'MicrosoftYaHei-Bold'" font-size="12">2</text>
	<text transform="matrix(1 0 0 1 59.7498 87.5818)" font-family="'MicrosoftYaHei-Bold'" font-size="12">3</text>
	<text transform="matrix(1 0 0 1 50.3337 146.9148)" font-family="'MicrosoftYaHei-Bold'" font-size="12">4</text>
	<text transform="matrix(1 0 0 1 125.489 94.9148)" font-family="'MicrosoftYaHei-Bold'" font-size="12">5</text>
	<text transform="matrix(1 0 0 1 188.9998 96.2478)" font-family="'MicrosoftYaHei-Bold'" font-size="12">6</text>
	<text transform="matrix(1 0 0 1 145.822 164.9148)" font-family="'MicrosoftYaHei-Bold'" font-size="12">7</text>
	<text transform="matrix(1 0 0 1 256.656 78.3616)" font-family="'MicrosoftYaHei-Bold'" font-size="12">9</text>
	<text transform="matrix(1 0 0 1 234.323 143.8669)" font-family="'MicrosoftYaHei-Bold'" font-size="12">10</text>
	<text transform="matrix(1 0 0 1 280.8225 143.8669)" font-family="'MicrosoftYaHei-Bold'" font-size="12">11</text>
	<text transform="matrix(1 0 0 1 410.49 138.9236)" font-family="'MicrosoftYaHei-Bold'" font-size="12">15</text>
	<text transform="matrix(1 0 0 1 373.8225 203.4685)" font-family="'MicrosoftYaHei-Bold'" font-size="12">16</text>
	<text transform="matrix(1 0 0 1 268.7839 207.5818)" font-family="'MicrosoftYaHei-Bold'" font-size="12">12</text>
	<text transform="matrix(1 0 0 1 183.0085 207.5818)" font-family="'MicrosoftYaHei-Bold'" font-size="12">8</text>
	<text transform="matrix(1 0 0 1 329.3411 110.656)" font-family="'MicrosoftYaHei-Bold'" font-size="12">13</text>
	<text transform="matrix(1 0 0 1 396.342 82.8323)" font-family="'MicrosoftYaHei-Bold'" font-size="12">14</text>
	<text transform="matrix(1 0 0 1 571.9597 34.1892)" font-family="'MicrosoftYaHei-Bold'" font-size="12">18</text>
	<text transform="matrix(1 0 0 1 478.2927 60.5227)" font-family="'MicrosoftYaHei-Bold'" font-size="12">17</text>
	<text transform="matrix(1 0 0 1 526.9597 82.8323)" font-family="'MicrosoftYaHei-Bold'" font-size="12">19</text>
	<text transform="matrix(1 0 0 1 465.2937 137.5232)" font-family="'MicrosoftYaHei-Bold'" font-size="12">21</text>
	<text transform="matrix(1 0 0 1 604.6257 78.3616)" font-family="'MicrosoftYaHei-Bold'" font-size="12">20</text>
	<text transform="matrix(1 0 0 1 528.6257 136.116)" font-family="'MicrosoftYaHei-Bold'" font-size="12">22</text>
	<text transform="matrix(1 0 0 1 494.7498 200.0779)" font-family="'MicrosoftYaHei-Bold'" font-size="12">25</text>
	<text transform="matrix(1 0 0 1 587.0007 207.5818)" font-family="'MicrosoftYaHei-Bold'" font-size="12">26</text>
	<text transform="matrix(1 0 0 1 714.3337 120.9958)" font-family="'MicrosoftYaHei-Bold'" font-size="12">27</text>
	<text transform="matrix(1 0 0 1 623.6267 120.9949)" font-family="'MicrosoftYaHei-Bold'" font-size="12">23</text>
	<text transform="matrix(1 0 0 1 623.6267 164.9138)" font-family="'MicrosoftYaHei-Bold'" font-size="12">24</text>
</g>
</svg>
