<?xml version="1.0" encoding="utf-8"?>
<!-- Generator: Adobe Illustrator 16.0.0, SVG Export Plug-In . SVG Version: 6.00 Build 0)  -->
<!DOCTYPE svg PUBLIC "-//W3C//DTD SVG 1.1//EN" "http://www.w3.org/Graphics/SVG/1.1/DTD/svg11.dtd">
<svg version="1.1" id="图层_1" xmlns="http://www.w3.org/2000/svg" xmlns:xlink="http://www.w3.org/1999/xlink" x="0px" y="0px"
	 width="799.775px" height="230.445px" viewBox="0 0 799.775 230.445" enable-background="new 0 0 799.775 230.445"
	 xml:space="preserve">
<polygon fill="none" points="746.5,145.913 746.5,145.913 746.5,145.913 "/>
<polygon class="test-poly" fill="#E37B21" stroke="#FFFFFF" stroke-miterlimit="10" points="454,136.116 454,117.411 454,103.822 416,103.822 
	386.5,103.822 386.5,136.822 "/>
<polygon class="test-poly" fill="#E37B21" stroke="#FFFFFF" stroke-miterlimit="10" points="535.5,103.822 564,103.822 564,74.911 513.334,74.911 
	487.275,74.911 487.275,103.822 "/>
<polygon class="test-poly" fill="#E37B21" stroke="#FFFFFF" stroke-miterlimit="10" points="487.275,117.411 487.275,103.822 487.275,74.911 
	454,74.911 454,103.822 454,117.411 "/>
<polygon class="test-poly" fill="#E37B21" stroke="#FFFFFF" stroke-miterlimit="10" points="637,103.822 650,103.822 650,74.911 650,41.165 
	604.669,41.165 604.669,103.822 "/>
<polygon class="test-poly" fill="#E37B21" id="test-gon" stroke="#FFFFFF" stroke-miterlimit="10" points="564,103.822 581.669,103.822 604.669,103.822 
	604.669,41.165 564,41.165 564,74.911 "/>
<polygon class="test-poly" fill="#E37B21" stroke="#FFFFFF" stroke-miterlimit="10" points="386.5,136.822 386.5,168.411 396,168.411 420.25,168.411 
	454,168.411 454,136.116 "/>
<polygon class="test-poly" fill="#E37B21" stroke="#FFFFFF" stroke-miterlimit="10" points="535.5,103.822 487.275,103.822 487.275,117.411 
	487.275,156.911 504.5,156.911 535.5,156.911 535.5,139.911 "/>
<polygon class="test-poly" fill="#E37B21" stroke="#FFFFFF" stroke-miterlimit="10" points="454,117.411 454,136.116 454,168.411 454,188.411 
	487.275,188.411 487.275,156.911 487.275,117.411 "/>
<polygon class="test-poly" fill="#E37B21" stroke="#FFFFFF" stroke-miterlimit="10" points="581.669,103.822 564,103.822 535.5,103.822 535.5,139.911 
	535.5,156.911 535.5,183.911 581.669,183.911 581.669,131.661 "/>
<polygon class="test-poly" fill="#E37B21" stroke="#FFFFFF" stroke-miterlimit="10" points="311.685,150.411 263.5,150.411 263.5,186.192 
	311.685,186.192 311.685,168.411 "/>
<polygon class="test-poly" fill="#E37B21" stroke="#FFFFFF" stroke-miterlimit="10" points="386.5,136.822 386.5,103.822 382.844,103.822 354,103.822 
	354,168.411 386.5,168.411 "/>
<polygon class="test-poly" fill="#E37B21" stroke="#FFFFFF" stroke-miterlimit="10" points="354,168.411 311.685,168.411 311.685,186.192 
	311.685,199.411 363.5,199.411 396,199.411 396,168.411 386.5,168.411 "/>
<polygon class="test-poly" fill="#E37B21" stroke="#FFFFFF" stroke-miterlimit="10" points="122,154.745 82.9,154.745 82.9,186.192 159.333,186.192 
	183,186.192 183,154.745 "/>
<polygon class="test-poly" fill="#E37B21" stroke="#FFFFFF" stroke-miterlimit="10" points="147.333,130.411 122,130.411 122,154.745 183,154.745 
	183,130.411 164,130.411 "/>
<rect class="test-poly" x="214" y="52.901" fill="#E37B21" stroke="#FFFFFF" stroke-miterlimit="10" width="49.5" height="38.755"/>
<polygon class="test-poly" fill="#E37B21" stroke="#FFFFFF" stroke-miterlimit="10" points="164,130.411 183,130.411 214,130.411 214,103.822 
	164,103.822 "/>
<polygon class="test-poly" fill="#E37B21" stroke="#FFFFFF" stroke-miterlimit="10" points="746.5,145.913 788,119.706 770.631,106.411 746.5,106.411 
	"/>
<polygon class="test-poly" fill="#E37B21" stroke="#FFFFFF" stroke-miterlimit="10" points="262.843,150.411 263.5,150.411 263.5,91.656 214,91.656 
	214,103.822 214,130.411 214,186.192 243,186.192 263.5,186.192 263.5,150.411 "/>
<polygon class="test-poly" fill="#E37B21" stroke="#FFFFFF" stroke-miterlimit="10" points="164,91.656 164,103.822 214,103.822 214,91.656 
	214,52.901 183,52.901 164,52.901 "/>
<rect class="test-poly" x="263.5" y="91.656" fill="#E37B21" stroke="#FFFFFF" stroke-miterlimit="10" width="48.186" height="58.755"/>
<polygon class="test-poly" fill="#E37B21" stroke="#FFFFFF" stroke-miterlimit="10" points="581.669,131.661 581.669,183.911 592,183.911 615,183.911 
	615,131.661 "/>
<polygon class="test-poly" fill="#E37B21" stroke="#FFFFFF" stroke-miterlimit="10" points="122,130.411 122,103.822 82.9,103.822 82.9,113.679 
	82.9,154.745 122,154.745 "/>
<polygon class="test-poly" fill="#E37B21" stroke="#FFFFFF" stroke-miterlimit="10" points="183,130.411 183,154.745 183,186.192 214,186.192 
	214,130.411 "/>
<polygon class="test-poly" fill="#E37B21" stroke="#FFFFFF" stroke-miterlimit="10" points="183,52.901 183,30.489 147.333,30.489 147.333,52.901 
	164,52.901 "/>
<polygon class="test-poly" fill="#E37B21" stroke="#FFFFFF" stroke-miterlimit="10" points="122,130.411 147.333,130.411 164,130.411 164,103.822 
	164,91.656 164,52.901 147.333,52.901 122,52.901 122,103.822 "/>
<polygon class="test-poly" fill="#E37B21" stroke="#FFFFFF" stroke-miterlimit="10" points="122,52.901 82.9,52.901 82.9,78.459 82.9,103.822 
	122,103.822 "/>
<rect class="test-poly" x="513.334" y="41.165" fill="#E37B21" stroke="#FFFFFF" stroke-miterlimit="10" width="50.666" height="33.746"/>
<polygon class="test-poly" fill="#E37B21" stroke="#FFFFFF" stroke-miterlimit="10" points="311.685,186.192 263.5,186.192 243,186.192 243,220.745 
	311.685,220.745 311.685,199.411 "/>
<polygon class="test-poly" fill="#E37B21" stroke="#FFFFFF" stroke-miterlimit="10" points="41.411,78.459 82.9,78.459 82.9,52.901 82.9,41.166 
	48.667,58.745 "/>
<polygon class="test-poly" fill="#E37B21" stroke="#FFFFFF" stroke-miterlimit="10" points="214,186.192 183,186.192 159.333,186.192 159.333,220.745 
	243,220.745 243,186.192 "/>
<polygon class="test-poly" fill="#E37B21" stroke="#FFFFFF" stroke-miterlimit="10" points="396,168.411 396,199.411 363.5,199.411 363.5,220.745 
	420.25,220.745 420.25,168.411 "/>
<polygon class="test-poly" fill="#E37B21" stroke="#FFFFFF" stroke-miterlimit="10" points="82.9,113.679 28.448,113.679 13.333,154.745 82.9,154.745 
	"/>
<rect class="test-poly" x="311.685" y="199.411" fill="#E37B21" stroke="#FFFFFF" stroke-miterlimit="10" width="51.814" height="21.334"/>
<polygon class="test-poly" fill="#E37B21" stroke="#FFFFFF" stroke-miterlimit="10" points="454,168.411 420.25,168.411 420.25,220.745 454,220.745 
	454,188.411 "/>
<polygon class="test-poly" fill="#E37B21" stroke="#FFFFFF" stroke-miterlimit="10" points="746.5,106.411 686.327,106.411 686.327,131.661 
	686.327,145.913 746.5,145.913 746.5,145.913 "/>
<polygon class="test-poly" fill="#E37B21" stroke="#FFFFFF" stroke-miterlimit="10" points="581.669,183.911 535.5,183.911 535.5,220.745 592,220.745 
	592,183.911 "/>
<polygon class="test-poly" fill="#E37B21" stroke="#FFFFFF" stroke-miterlimit="10" points="487.275,156.911 487.275,188.411 454,188.411 454,220.745 
	504.5,220.745 504.5,156.911 "/>
<polygon class="test-poly" fill="#E37B21" stroke="#FFFFFF" stroke-miterlimit="10" points="535.5,156.911 504.5,156.911 504.5,220.745 535.5,220.745 
	535.5,183.911 "/>
<polygon class="test-poly" fill="#E37B21" stroke="#FFFFFF" stroke-miterlimit="10" points="689.738,74.911 729.477,74.911 686.327,41.883 
	686.327,74.911 "/>
<polygon class="test-poly" fill="#E37B21" stroke="#FFFFFF" stroke-miterlimit="10" points="686.327,74.911 686.327,106.411 746.5,106.411 
	770.631,106.411 729.477,74.911 689.738,74.911 "/>
<rect class="test-poly" x="615" y="131.661" fill="#E37B21" stroke="#FFFFFF" stroke-miterlimit="10" width="40.5" height="52.25"/>
<polygon class="test-poly" fill="#E37B21" stroke="#FFFFFF" stroke-miterlimit="10" points="650,74.911 686.327,74.911 686.327,41.883 650,14.077 
	650,41.165 "/>
<polygon class="test-poly" fill="#E37B21" stroke="#FFFFFF" stroke-miterlimit="10" points="564,41.165 604.669,41.165 650,41.165 650,14.077 
	513.334,10.745 513.334,41.165 "/>
<polygon class="test-poly" fill="#E37B21" stroke="#FFFFFF" stroke-miterlimit="10" points="122,52.901 147.333,52.901 147.333,30.489 147.333,8.079 
	82.9,41.166 82.9,52.901 "/>
<g>
	<polygon class="test-poly" fill="#E37B21" stroke="#FFFFFF" stroke-miterlimit="10" points="604.669,103.822 581.669,103.822 581.669,131.661 
		615,131.661 637,131.661 637,103.822 	"/>
	<polygon class="test-poly" fill="#E37B21" stroke="#FFFFFF" stroke-miterlimit="10" points="650,74.911 650,103.822 637,103.822 637,131.661 
		655.5,131.661 686.327,131.661 686.327,106.411 686.327,74.911 	"/>
</g>
<polygon class="test-poly" fill="#E37B21" stroke="#FFFFFF" stroke-miterlimit="10" points="655.5,183.911 686.327,183.911 686.327,145.913 
	686.327,131.661 655.5,131.661 "/>
<polygon class="test-poly" fill="#E37B21" stroke="#FFFFFF" stroke-miterlimit="10" points="183,30.489 183,52.901 214,52.901 263.5,52.901 
	311.685,52.901 229.506,30.489 188.421,30.489 "/>
<polygon class="test-poly" fill="#E37B21" stroke="#FFFFFF" stroke-miterlimit="10" points="183,30.489 188.421,30.489 229.506,30.489 147.333,8.079 
	147.333,30.489 "/>
<rect class="test-poly" x="263.5" y="52.901" fill="#E37B21" stroke="#FFFFFF" stroke-miterlimit="10" width="48.186" height="38.755"/>
<polygon class="test-poly" fill="#E37B21" stroke="#FFFFFF" stroke-miterlimit="10" points="487.275,74.911 513.334,74.911 513.334,41.165 
	513.334,10.745 454,54.079 454,74.911 "/>
<polygon class="test-poly" fill="#E37B21" stroke="#FFFFFF" stroke-miterlimit="10" points="82.9,78.459 82.9,113.679 28.448,113.679 41.411,78.459 
	"/>
<polygon class="test-poly" fill="#E37B21" stroke="#FFFFFF" stroke-miterlimit="10" points="159.333,186.192 159.333,220.745 82.9,186.192 "/>
<polygon class="test-poly" fill="#E37B21" stroke="#FFFFFF" stroke-miterlimit="10" points="82.9,186.192 82.9,154.745 13.333,154.745 "/>
<rect class="test-poly" x="311.685" y="52.901" fill="#E37B21" stroke="#FFFFFF" stroke-miterlimit="10" width="42.314" height="115.51"/>
<rect class="test-poly" x="354.001" y="52.901" fill="#E37B21" stroke="#FFFFFF" stroke-miterlimit="10" width="62" height="50.921"/>
<polygon class="test-poly" fill="#E37B21" stroke="#FFFFFF" stroke-miterlimit="10" points="416,103.822 454,103.822 454,54.079 416.001,52.901 "/>
<polygon class="test-poly" fill="#E37B21" stroke="#FFFFFF" stroke-miterlimit="10" points="592,183.911 592,220.745 632.72,220.745 686.327,183.911 
	"/>
<polygon class="test-poly" fill="#E37B21" stroke="#FFFFFF" stroke-miterlimit="10" points="686.327,183.911 746.5,145.913 686.327,145.913 "/>
<g id="图层_4">
	<text transform="matrix(1 0 0 1 115.0002 41.1648)" font-family="'MicrosoftYaHei-Bold'" font-size="12">1</text>
	<text transform="matrix(1 0 0 1 164.0002 25.6648)" font-family="'MicrosoftYaHei-Bold'" font-size="12">2</text>
	<text transform="matrix(1 0 0 1 164.0002 45.6648)" font-family="'MicrosoftYaHei-Bold'" font-size="12">3</text>
	<text transform="matrix(1 0 0 1 219.0002 45.6648)" font-family="'MicrosoftYaHei-Bold'" font-size="12">4</text>
	<text transform="matrix(1 0 0 1 483.6667 58.9509)" font-family="'MicrosoftYaHei-Bold'" font-size="12">35</text>
	<text transform="matrix(1 0 0 1 576.1687 30.49)" font-family="'MicrosoftYaHei-Bold'" font-size="12">39</text>
	<text transform="matrix(1 0 0 1 535.5007 61.99)" font-family="'MicrosoftYaHei-Bold'" font-size="12">40</text>
	<text transform="matrix(1 0 0 1 62.1555 69.49)" font-family="'MicrosoftYaHei-Bold'" font-size="12">5</text>
	<text transform="matrix(1 0 0 1 55.6746 101.49)" font-family="'MicrosoftYaHei-Bold'" font-size="12">6</text>
	<text transform="matrix(1 0 0 1 48.1555 139.99)" font-family="'MicrosoftYaHei-Bold'" font-size="12">7</text>
	<text transform="matrix(1 0 0 1 99.6555 81.99)" font-family="'MicrosoftYaHei-Bold'" font-size="12">9</text>
	<text transform="matrix(1 0 0 1 99.6555 133.49)" font-family="'MicrosoftYaHei-Bold'" font-size="12">10</text>
	<text transform="matrix(1 0 0 1 139.1555 96.3562)" font-family="'MicrosoftYaHei-Bold'" font-size="12">11</text>
	<text transform="matrix(1 0 0 1 185.1555 84.8562)" font-family="'MicrosoftYaHei-Bold'" font-size="12">15</text>
	<text transform="matrix(1 0 0 1 185.1555 119.5466)" font-family="'MicrosoftYaHei-Bold'" font-size="12">16</text>
	<text transform="matrix(1 0 0 1 148.4504 145.9138)" font-family="'MicrosoftYaHei-Bold'" font-size="12">12</text>
	<text transform="matrix(1 0 0 1 55.6746 169.0769)" font-family="'MicrosoftYaHei-Bold'" font-size="12">8</text>
	<text transform="matrix(1 0 0 1 130.6746 177.0769)" font-family="'MicrosoftYaHei-Bold'" font-size="12">13</text>
	<text transform="matrix(1 0 0 1 134.1746 203.4685)" font-family="'MicrosoftYaHei-Bold'" font-size="12">14</text>
	<text transform="matrix(1 0 0 1 197.2927 207.9685)" font-family="'MicrosoftYaHei-Bold'" font-size="12">18</text>
	<text transform="matrix(1 0 0 1 194.2927 161.4685)" font-family="'MicrosoftYaHei-Bold'" font-size="12">17</text>
	<text transform="matrix(1 0 0 1 233.2927 78.9509)" font-family="'MicrosoftYaHei-Bold'" font-size="12">19</text>
	<text transform="matrix(1 0 0 1 281.2927 78.4587)" font-family="'MicrosoftYaHei-Bold'" font-size="12">21</text>
	<text transform="matrix(1 0 0 1 233.2927 143.8669)" font-family="'MicrosoftYaHei-Bold'" font-size="12">20</text>
	<text transform="matrix(1 0 0 1 281.2927 126.1619)" font-family="'MicrosoftYaHei-Bold'" font-size="12">22</text>
	<text transform="matrix(1 0 0 1 330.2927 117.0955)" font-family="'MicrosoftYaHei-Bold'" font-size="12">25</text>
	<text transform="matrix(1 0 0 1 379.7927 84.8562)" font-family="'MicrosoftYaHei-Bold'" font-size="12">28</text>
	<text transform="matrix(1 0 0 1 428.2937 84.8562)" font-family="'MicrosoftYaHei-Bold'" font-size="12">30</text>
	<text transform="matrix(1 0 0 1 365.7927 139.99)" font-family="'MicrosoftYaHei-Bold'" font-size="12">29</text>
	<text transform="matrix(1 0 0 1 416.0007 126.1619)" font-family="'MicrosoftYaHei-Bold'" font-size="12">31</text>
	<text transform="matrix(1 0 0 1 416.0007 154.7439)" font-family="'MicrosoftYaHei-Bold'" font-size="12">32</text>
	<text transform="matrix(1 0 0 1 354.0002 188.8269)" font-family="'MicrosoftYaHei-Bold'" font-size="12">26</text>
	<text transform="matrix(1 0 0 1 334.0002 214.8269)" font-family="'MicrosoftYaHei-Bold'" font-size="12">27</text>
	<text transform="matrix(1 0 0 1 396.0002 214.8269)" font-family="'MicrosoftYaHei-Bold'" font-size="12">33</text>
	<text transform="matrix(1 0 0 1 433.0007 202.3269)" font-family="'MicrosoftYaHei-Bold'" font-size="12">34</text>
	<text transform="matrix(1 0 0 1 467.0007 101.49)" font-family="'MicrosoftYaHei-Bold'" font-size="12">36</text>
	<text transform="matrix(1 0 0 1 467.0007 158.3025)" font-family="'MicrosoftYaHei-Bold'" font-size="12">37</text>
	<text transform="matrix(1 0 0 1 477.0007 207.9685)" font-family="'MicrosoftYaHei-Bold'" font-size="12">38</text>
	<text transform="matrix(1 0 0 1 508.0007 136.1169)" font-family="'MicrosoftYaHei-Bold'" font-size="12">42</text>
	<text transform="matrix(1 0 0 1 520.0007 94.1169)" font-family="'MicrosoftYaHei-Bold'" font-size="12">41</text>
	<text transform="matrix(1 0 0 1 512.0007 197.1169)" font-family="'MicrosoftYaHei-Bold'" font-size="12">43</text>
	<text transform="matrix(1 0 0 1 554.5007 150.4119)" font-family="'MicrosoftYaHei-Bold'" font-size="12">45</text>
	<text transform="matrix(1 0 0 1 579.5007 78.4587)" font-family="'MicrosoftYaHei-Bold'" font-size="12">44</text>
	<text transform="matrix(1 0 0 1 622.5007 78.4587)" font-family="'MicrosoftYaHei-Bold'" font-size="12">47</text>
	<text transform="matrix(1 0 0 1 602.5007 121.9587)" font-family="'MicrosoftYaHei-Bold'" font-size="12">48</text>
	<text transform="matrix(1 0 0 1 594.0007 161.4685)" font-family="'MicrosoftYaHei-Bold'" font-size="12">49</text>
	<text transform="matrix(1 0 0 1 561.5007 207.9685)" font-family="'MicrosoftYaHei-Bold'" font-size="12">46</text>
	<text transform="matrix(1 0 0 1 624.5007 210.0769)" font-family="'MicrosoftYaHei-Bold'" font-size="12">54</text>
	<text transform="matrix(1 0 0 1 633.9988 161.4685)" font-family="'MicrosoftYaHei-Bold'" font-size="12">52</text>
	<text transform="matrix(1 0 0 1 667.9988 161.4685)" font-family="'MicrosoftYaHei-Bold'" font-size="12">53</text>
	<text transform="matrix(1 0 0 1 661.9988 111.2458)" font-family="'MicrosoftYaHei-Bold'" font-size="12">51</text>
	<text transform="matrix(1 0 0 1 661.9988 56.7458)" font-family="'MicrosoftYaHei-Bold'" font-size="12">50</text>
	<text transform="matrix(1 0 0 1 692.9988 69.49)" font-family="'MicrosoftYaHei-Bold'" font-size="12">55</text>
	<text transform="matrix(1 0 0 1 713.9988 96.3562)" font-family="'MicrosoftYaHei-Bold'" font-size="12">56</text>
	<text transform="matrix(1 0 0 1 713.9988 131.6619)" font-family="'MicrosoftYaHei-Bold'" font-size="12">57</text>
	<text transform="matrix(1 0 0 1 754.9988 130.3669)" font-family="'MicrosoftYaHei-Bold'" font-size="12">59</text>
	<text transform="matrix(1 0 0 1 701.9988 161.4685)" font-family="'MicrosoftYaHei-Bold'" font-size="12">58</text>
	<text transform="matrix(1 0 0 1 281.2927 172.6619)" font-family="'MicrosoftYaHei-Bold'" font-size="12">23</text>
	<text transform="matrix(1 0 0 1 276.7927 207.9685)" font-family="'MicrosoftYaHei-Bold'" font-size="12">24</text>
</g>
</svg>
